<?xml version="1.0" encoding="UTF-8"?>
<svg version="1.1" xmlns="http://www.w3.org/2000/svg" width="48" height="48">
<path d="M0 0 C5.82485779 3.51996782 10.54466582 8.98962934 12.5625 15.5 C13.36764105 23.33608208 13.68710392 31.11922577 8.5625 37.5 C3.75801361 42.54521222 -0.59927055 46.10562995 -7.70703125 46.8359375 C-16.22326573 46.92983204 -22.11345494 46.6177288 -28.40234375 40.62890625 C-34.7841668 33.72505269 -35.91792252 28.29832071 -35.7421875 18.9453125 C-35.04689797 11.08319245 -31.38995981 6.95041296 -25.53515625 1.9453125 C-18.47077988 -2.92213491 -7.84396301 -3.47595223 0 0 Z " fill="#2057E6" transform="translate(35.4375,1.5)"/>
<path d="M0 0 C4.30028577 1.75920781 7.87256655 4.823604 10 9 C10.94925971 14.0327131 10.56963072 17.83964113 8.3125 22.4375 C4.55241864 26.60407664 1.78136091 28.17954706 -3.8125 28.625 C-9.11597336 28.49003137 -11.76624482 26.41147127 -15.50390625 22.82421875 C-18.293256 19.42310561 -18.50607662 15.66890686 -18.4921875 11.42578125 C-17.57913022 6.92571322 -14.34743043 3.96876183 -11 1 C-7.54592112 -0.72703944 -3.78375533 -0.35534398 0 0 Z " fill="#EEF5FD" transform="translate(28,10)"/>
<path d="M0 0 C2.64 0 5.28 0 8 0 C8 2.64 8 5.28 8 8 C5.36 8 2.72 8 0 8 C0 5.36 0 2.72 0 0 Z " fill="#2047D6" transform="translate(20,20)"/>
<path d="M0 0 C2.31 0.33 4.62 0.66 7 1 C7 1.66 7 2.32 7 3 C4.36 3 1.72 3 -1 3 C-0.67 2.01 -0.34 1.02 0 0 Z " fill="#D7ECFD" transform="translate(21,17)"/>
<path d="M0 0 C1.65 0 3.3 0 5 0 C5 1.98 5 3.96 5 6 C3.2925002 4.71937515 1.62626404 3.38232443 0 2 C0 1.34 0 0.68 0 0 Z " fill="#3862DF" transform="translate(31,10)"/>
<path d="M0 0 C2.64 1.98 5.28 3.96 8 6 C6.02 6.99 6.02 6.99 4 8 C0 2.25 0 2.25 0 0 Z " fill="#2852C7" transform="translate(11,31)"/>
<path d="M0 0 C0.33 0.66 0.66 1.32 1 2 C0.34 1.67 -0.32 1.34 -1 1 C-0.67 0.67 -0.34 0.34 0 0 Z " fill="#174DDC" transform="translate(42,41)"/>
<path d="M0 0 C2 1 2 1 2 1 Z " fill="#174DDC" transform="translate(34,47)"/>
<path d="M0 0 C2 1 2 1 2 1 Z " fill="#174CDE" transform="translate(12,47)"/>
<path d="M0 0 C2 1 2 1 2 1 Z " fill="#184CDA" transform="translate(36,46)"/>
<path d="M0 0 C2 1 2 1 2 1 Z " fill="#184BDE" transform="translate(10,46)"/>
<path d="" fill="#1B4EE0" transform="translate(0,0)"/>
<path d="" fill="#1D51DF" transform="translate(0,0)"/>
<path d="" fill="#1D53E2" transform="translate(0,0)"/>
<path d="" fill="#194FE1" transform="translate(0,0)"/>
<path d="" fill="#245EEE" transform="translate(0,0)"/>
<path d="" fill="#245DF3" transform="translate(0,0)"/>
<path d="" fill="#245EEE" transform="translate(0,0)"/>
<path d="" fill="#2561E8" transform="translate(0,0)"/>
<path d="M0 0 C2 1 2 1 2 1 Z " fill="#2E62F4" transform="translate(37,2)"/>
<path d="M0 0 C2 1 2 1 2 1 Z " fill="#2762F2" transform="translate(9,2)"/>
<path d="M0 0 C2 1 2 1 2 1 Z " fill="#2E62F4" transform="translate(34,0)"/>
<path d="M0 0 C2 1 2 1 2 1 Z " fill="#2762F2" transform="translate(12,0)"/>
<path d="" fill="#1A4BDA" transform="translate(0,0)"/>
<path d="" fill="#174ADD" transform="translate(0,0)"/>
<path d="" fill="#1D4BD4" transform="translate(0,0)"/>
<path d="" fill="#154BDF" transform="translate(0,0)"/>
<path d="" fill="#1F4AD6" transform="translate(0,0)"/>
<path d="" fill="#134EE0" transform="translate(0,0)"/>
<path d="" fill="#134DE2" transform="translate(0,0)"/>
<path d="" fill="#124CE1" transform="translate(0,0)"/>
<path d="" fill="#1053D5" transform="translate(0,0)"/>
<path d="" fill="#164EE1" transform="translate(0,0)"/>
<path d="" fill="#1950D8" transform="translate(0,0)"/>
<path d="" fill="#194EE2" transform="translate(0,0)"/>
<path d="" fill="#1C50DE" transform="translate(0,0)"/>
<path d="" fill="#1B4EE0" transform="translate(0,0)"/>
<path d="" fill="#245FEA" transform="translate(0,0)"/>
<path d="" fill="#235DED" transform="translate(0,0)"/>
<path d="" fill="#2362F3" transform="translate(0,0)"/>
<path d="" fill="#2861ED" transform="translate(0,0)"/>
<path d="" fill="#2266F5" transform="translate(0,0)"/>
<path d="" fill="#2660F3" transform="translate(0,0)"/>
<path d="" fill="#2763F7" transform="translate(0,0)"/>
<path d="" fill="#2960F6" transform="translate(0,0)"/>
<path d="" fill="#2763F7" transform="translate(0,0)"/>
<path d="" fill="#2960F6" transform="translate(0,0)"/>
<path d="" fill="#2266F5" transform="translate(0,0)"/>
<path d="" fill="#2762F2" transform="translate(0,0)"/>
<path d="" fill="#2A64F6" transform="translate(0,0)"/>
<path d="" fill="#2961F2" transform="translate(0,0)"/>
<path d="" fill="#2E62F4" transform="translate(0,0)"/>
<path d="" fill="#2762F2" transform="translate(0,0)"/>
</svg>
