<svg width="76" height="124" viewBox="0 0 76 124" fill="none" xmlns="http://www.w3.org/2000/svg">
<path d="M37.986 6.51074L71.3427 61.8587L37.986 81.5757L4.62605 61.8587L37.986 6.51074ZM37.986 0L0 63.0245L37.986 85.4761L75.9687 63.0245L37.986 0Z" fill="white"/>
<path d="M37.986 50.6778L68.5106 63.5279L37.986 81.5719L7.45812 63.5279L37.986 50.6778ZM37.986 47.0327L0 63.024L37.986 85.4756L75.9687 63.024L37.986 47.0327Z" fill="white"/>
<path d="M64.1304 81.1325L37.9934 117.943L11.8698 81.1325L36.2834 95.5582L37.9934 96.5661L39.7001 95.5582L64.1304 81.1325ZM75.9996 70.2241L37.9934 92.6657L0.0107422 70.2241L38.0001 123.745V123.751L75.9996 70.2241Z" fill="white"/>
<path d="M39.6769 6.31201H36.3174V82.8821H39.6769V6.31201Z" fill="white"/>
<path d="M39.6769 93.2441H36.3174V119.697H39.6769V93.2441Z" fill="white"/>
</svg>
