<svg width="240" height="42" viewBox="0 0 240 42" fill="none" xmlns="http://www.w3.org/2000/svg">
<g opacity="0.5">
<path d="M36.3185 36.6496C36.3185 37.0131 36.2735 37.368 36.1835 37.7143C36.0969 38.0571 35.9619 38.3618 35.7784 38.6284C35.5983 38.8915 35.3698 39.1045 35.0928 39.2672C34.8158 39.4265 34.4869 39.5061 34.106 39.5061C33.7459 39.5061 33.4187 39.4334 33.1244 39.288C32.8335 39.1391 32.5894 38.9262 32.3921 38.6492L32.3661 39.4022H31.7844V31.4247H32.4077V34.5669C32.5981 34.2865 32.8353 34.0683 33.1192 33.9125C33.4066 33.7567 33.7321 33.6788 34.0956 33.6788C34.4799 33.6788 34.8123 33.7584 35.0928 33.9177C35.3733 34.0735 35.6035 34.2847 35.7836 34.5513C35.9636 34.8145 36.0969 35.1192 36.1835 35.4654C36.2735 35.8082 36.3185 36.1666 36.3185 36.5405V36.6496ZM35.6901 36.5405C35.6901 36.2601 35.6606 35.9813 35.6018 35.7043C35.5429 35.4273 35.4477 35.1798 35.3161 34.9616C35.1846 34.74 35.008 34.5617 34.7864 34.4267C34.5682 34.2882 34.2982 34.2189 33.9762 34.2189C33.7892 34.2189 33.6143 34.2466 33.4516 34.302C33.2889 34.3574 33.14 34.4336 33.0049 34.5306C32.8734 34.6275 32.7574 34.7452 32.657 34.8837C32.5566 35.0188 32.4735 35.1659 32.4077 35.3252V37.948C32.4769 38.1004 32.5635 38.2406 32.6673 38.3687C32.7747 38.4933 32.8959 38.6007 33.0309 38.6907C33.1694 38.7773 33.3183 38.8448 33.4776 38.8933C33.6403 38.9417 33.81 38.966 33.9865 38.966C34.3016 38.966 34.5665 38.8985 34.7812 38.7634C34.9993 38.6284 35.1742 38.4518 35.3057 38.2337C35.4408 38.0121 35.5377 37.7628 35.5966 37.4858C35.6589 37.2088 35.6901 36.93 35.6901 36.6496V36.5405Z" fill="#FCFCFC"/>
<path d="M45.3192 39.4022C45.2812 39.288 45.2517 39.1616 45.231 39.0231C45.2102 38.8811 45.1963 38.7375 45.1894 38.592C45.0821 38.7236 44.9574 38.8448 44.8155 38.9556C44.6735 39.0664 44.5177 39.1633 44.348 39.2464C44.1818 39.3261 44.0018 39.3884 43.8079 39.4334C43.614 39.4819 43.4114 39.5061 43.2002 39.5061C42.9371 39.5061 42.6912 39.468 42.4627 39.3919C42.2377 39.3157 42.0403 39.2083 41.8706 39.0698C41.7044 38.9313 41.5729 38.7652 41.4759 38.5713C41.3824 38.3739 41.3357 38.154 41.3357 37.9117C41.3357 37.5896 41.4067 37.3161 41.5486 37.0911C41.6906 36.866 41.8828 36.6842 42.1251 36.5457C42.3675 36.4038 42.648 36.2999 42.9665 36.2341C43.2851 36.1683 43.6192 36.1354 43.9689 36.1354H45.1842V35.4966C45.1808 35.2854 45.1392 35.1001 45.0596 34.9409C44.9799 34.7781 44.8709 34.6431 44.7324 34.5358C44.5973 34.425 44.4346 34.3419 44.2442 34.2865C44.0572 34.2311 43.8529 34.2034 43.6313 34.2034C43.4305 34.2034 43.2383 34.2293 43.0548 34.2813C42.8748 34.3332 42.7137 34.4077 42.5718 34.5046C42.4333 34.6015 42.3208 34.721 42.2342 34.863C42.1476 35.0015 42.1009 35.159 42.094 35.3356L41.4707 35.3304C41.4811 35.0915 41.5434 34.8716 41.6577 34.6708C41.7754 34.47 41.933 34.2969 42.1303 34.1514C42.3277 34.0025 42.5562 33.8865 42.8159 33.8035C43.079 33.7204 43.3595 33.6788 43.6573 33.6788C43.955 33.6788 44.2338 33.7169 44.4935 33.7931C44.7566 33.8692 44.9834 33.9835 45.1738 34.1358C45.3677 34.2882 45.5201 34.4786 45.6309 34.7072C45.7451 34.9357 45.804 35.2023 45.8075 35.507V38.2285C45.8075 38.4154 45.823 38.6041 45.8542 38.7946C45.8888 38.985 45.9304 39.1668 45.9788 39.3399L45.984 39.4022H45.3192ZM43.2677 38.9556C43.4859 38.959 43.6936 38.9331 43.891 38.8777C44.0918 38.8223 44.2753 38.7461 44.4415 38.6492C44.6077 38.5487 44.7549 38.431 44.883 38.296C45.0111 38.1575 45.1115 38.0069 45.1842 37.8441V36.6132H44.052C43.7785 36.6132 43.5153 36.634 43.2625 36.6756C43.0098 36.7171 42.7865 36.7864 42.5926 36.8833C42.3987 36.9768 42.2429 37.1032 42.1251 37.2624C42.0109 37.4217 41.9537 37.6208 41.9537 37.8597C41.9537 38.0294 41.9884 38.1817 42.0576 38.3168C42.1269 38.4518 42.2204 38.5678 42.3381 38.6647C42.4558 38.7582 42.5943 38.8309 42.7536 38.8829C42.9128 38.9313 43.0842 38.9556 43.2677 38.9556Z" fill="#FCFCFC"/>
<path d="M52.6994 36.5613L51.9048 37.2728V39.4022H51.2764V31.4247H51.9048V36.5561L52.5748 35.8965L54.8548 33.7827H55.6494L53.1409 36.151L55.9091 39.4022H55.1093L52.6994 36.5613Z" fill="#FCFCFC"/>
<path d="M61.0042 33.7827H63.6114V38.8517H65.5227V39.4023H61.0042V38.8517H62.9881V34.3384H61.0042V33.7827ZM62.8064 32.2454C62.8064 32.1172 62.8427 32.0065 62.9154 31.913C62.9881 31.8195 63.1093 31.7727 63.279 31.7727C63.4452 31.7727 63.5646 31.8195 63.6373 31.913C63.7135 32.0065 63.7516 32.1172 63.7516 32.2454C63.7516 32.3665 63.7135 32.4739 63.6373 32.5674C63.5646 32.6574 63.4452 32.7024 63.279 32.7024C63.1093 32.7024 62.9881 32.6574 62.9154 32.5674C62.8427 32.4739 62.8064 32.3665 62.8064 32.2454Z" fill="#FCFCFC"/>
<path d="M71.1319 33.7827L71.1786 34.837C71.376 34.4873 71.6391 34.2086 71.968 34.0008C72.297 33.7896 72.6709 33.6823 73.0899 33.6788C73.7062 33.6788 74.1771 33.864 74.5026 34.2345C74.828 34.6015 74.9925 35.1244 74.996 35.803V39.4022H74.3727V35.8134C74.3693 35.2975 74.2515 34.9028 74.0195 34.6292C73.7876 34.3522 73.4275 34.2155 72.9393 34.2189C72.7384 34.2189 72.5463 34.2518 72.3628 34.3176C72.1827 34.3834 72.0165 34.4734 71.8642 34.5877C71.7153 34.702 71.582 34.837 71.4642 34.9928C71.35 35.1486 71.2565 35.3183 71.1838 35.5018V39.4022H70.5605V33.7827H71.1319Z" fill="#FCFCFC"/>
<path d="M80.0857 36.5405C80.0857 36.1666 80.1307 35.8082 80.2207 35.4654C80.3108 35.1192 80.4475 34.8145 80.631 34.5513C80.818 34.2847 81.05 34.0735 81.327 33.9177C81.6074 33.7584 81.9381 33.6788 82.319 33.6788C82.6791 33.6788 83.0011 33.7567 83.285 33.9125C83.5724 34.0649 83.8113 34.2813 84.0017 34.5617L84.0277 33.7827H84.6094V39.3036C84.6059 39.6463 84.5523 39.9614 84.4484 40.2488C84.3445 40.5362 84.1939 40.782 83.9965 40.9863C83.8026 41.1941 83.5672 41.3551 83.2902 41.4693C83.0132 41.5836 82.7016 41.6407 82.3553 41.6407C82.1891 41.6407 82.016 41.6217 81.836 41.5836C81.6559 41.5455 81.4793 41.4866 81.3062 41.407C81.1331 41.3274 80.9669 41.227 80.8076 41.1058C80.6518 40.988 80.515 40.8461 80.3973 40.6799L80.7453 40.3059C81.1919 40.8461 81.7148 41.1162 82.3138 41.1162C82.5804 41.1162 82.8176 41.0729 83.0253 40.9863C83.2331 40.8998 83.4062 40.7768 83.5447 40.6176C83.6866 40.4618 83.794 40.273 83.8667 40.0515C83.9429 39.8333 83.9827 39.5927 83.9861 39.3295V38.6907C83.7888 38.9539 83.5464 39.1564 83.259 39.2984C82.9751 39.4369 82.6583 39.5061 82.3086 39.5061C81.9346 39.5061 81.6074 39.4265 81.327 39.2672C81.05 39.1045 80.8197 38.8915 80.6362 38.6284C80.4527 38.3618 80.3142 38.0571 80.2207 37.7143C80.1307 37.368 80.0857 37.0131 80.0857 36.6496V36.5405ZM80.7089 36.6496C80.7089 36.93 80.7384 37.2088 80.7972 37.4858C80.8596 37.7628 80.9582 38.0121 81.0933 38.2337C81.2283 38.4518 81.4049 38.6284 81.623 38.7634C81.8412 38.8985 82.1078 38.966 82.4229 38.966C82.5994 38.966 82.7674 38.9435 82.9266 38.8985C83.0859 38.85 83.2313 38.7825 83.3629 38.6959C83.4979 38.6093 83.6174 38.5055 83.7213 38.3843C83.8286 38.2596 83.9169 38.1211 83.9861 37.9688V35.294C83.9169 35.1382 83.8321 34.9945 83.7317 34.863C83.6312 34.7314 83.5153 34.6189 83.3837 34.5254C83.2521 34.4284 83.1067 34.354 82.9474 34.302C82.7881 34.2466 82.6167 34.2189 82.4332 34.2189C82.1147 34.2189 81.8464 34.2882 81.6282 34.4267C81.4101 34.5617 81.2318 34.74 81.0933 34.9616C80.9582 35.1798 80.8596 35.4273 80.7972 35.7043C80.7384 35.9813 80.7089 36.2601 80.7089 36.5405V36.6496Z" fill="#FCFCFC"/>
<path d="M100.263 37.974C100.263 37.8009 100.22 37.6502 100.133 37.5221C100.047 37.394 99.9272 37.2849 99.7748 37.1949C99.626 37.1014 99.4528 37.0235 99.2555 36.9612C99.0581 36.8989 98.8486 36.8452 98.627 36.8002C98.357 36.7448 98.0956 36.679 97.8428 36.6028C97.59 36.5232 97.365 36.4228 97.1676 36.3016C96.9703 36.1804 96.8127 36.0333 96.695 35.8601C96.5773 35.6836 96.5184 35.4672 96.5184 35.2109C96.5184 34.9686 96.579 34.7522 96.7002 34.5617C96.8214 34.3713 96.9806 34.2103 97.178 34.0787C97.3754 33.9471 97.6004 33.8485 97.8532 33.7827C98.1059 33.7134 98.3656 33.6788 98.6322 33.6788C98.9369 33.6788 99.2209 33.7169 99.484 33.7931C99.7506 33.8658 99.9826 33.9748 100.18 34.1203C100.381 34.2622 100.54 34.4371 100.658 34.6448C100.775 34.8526 100.84 35.0898 100.85 35.3564H100.227C100.22 35.1763 100.171 35.0153 100.081 34.8733C99.9912 34.7279 99.8718 34.6067 99.7229 34.5098C99.574 34.4128 99.4044 34.3384 99.2139 34.2865C99.027 34.2345 98.8331 34.2086 98.6322 34.2086C98.4453 34.2086 98.2618 34.2293 98.0817 34.2709C97.9051 34.309 97.7458 34.3696 97.6039 34.4527C97.4654 34.5323 97.3529 34.6344 97.2663 34.7591C97.1832 34.8803 97.1416 35.024 97.1416 35.1902C97.1382 35.3667 97.178 35.5156 97.2611 35.6368C97.3477 35.7545 97.4637 35.855 97.6091 35.9381C97.7545 36.0177 97.9242 36.0852 98.1181 36.1406C98.3154 36.1925 98.5249 36.241 98.7465 36.286C99.0304 36.3449 99.3005 36.4176 99.5567 36.5042C99.8164 36.5873 100.045 36.6929 100.242 36.821C100.44 36.9456 100.595 37.0997 100.71 37.2832C100.824 37.4667 100.881 37.6866 100.881 37.9428C100.881 38.206 100.817 38.4362 100.689 38.6336C100.564 38.8275 100.398 38.9902 100.19 39.1218C99.9861 39.2499 99.7506 39.3451 99.484 39.4074C99.2209 39.4732 98.949 39.5061 98.6686 39.5061C98.3535 39.5061 98.0557 39.468 97.7753 39.3919C97.4983 39.3157 97.2524 39.2066 97.0378 39.0647C96.8266 38.9192 96.6569 38.7426 96.5288 38.5349C96.4007 38.3271 96.3314 38.0917 96.321 37.8286H96.9443C96.9651 38.0502 97.0308 38.2354 97.1416 38.3843C97.2559 38.5332 97.3944 38.6526 97.5571 38.7426C97.7233 38.8292 97.9034 38.8915 98.0973 38.9296C98.2912 38.9642 98.4816 38.9816 98.6686 38.9816C98.859 38.9816 99.0477 38.9625 99.2347 38.9244C99.4251 38.8829 99.5948 38.8223 99.7437 38.7426C99.896 38.6595 100.019 38.5557 100.112 38.431C100.209 38.3029 100.26 38.1506 100.263 37.974Z" fill="#FCFCFC"/>
<path d="M106.724 37.5793L106.89 38.5765L107.098 37.5793L108.049 33.7827H108.485L109.435 37.5793L109.643 38.6024L109.825 37.5793L110.593 33.7827H111.17L109.923 39.4022H109.42L108.428 35.5589L108.261 34.6604L108.095 35.5589L107.114 39.4022H106.61L105.363 33.7827H105.94L106.724 37.5793Z" fill="#FCFCFC"/>
<path d="M118.145 39.5061C117.754 39.5061 117.397 39.4334 117.075 39.288C116.753 39.1426 116.476 38.9452 116.244 38.6959C116.015 38.4466 115.837 38.1558 115.709 37.8234C115.584 37.4875 115.52 37.1309 115.517 36.7535V36.5301C115.52 36.1285 115.586 35.7545 115.714 35.4083C115.846 35.0621 116.024 34.7608 116.249 34.5046C116.474 34.2484 116.739 34.0476 117.044 33.9021C117.348 33.7532 117.676 33.6788 118.025 33.6788C118.399 33.6788 118.73 33.7463 119.017 33.8814C119.305 34.0164 119.545 34.2016 119.739 34.4371C119.937 34.6691 120.086 34.9409 120.186 35.2525C120.29 35.5641 120.344 35.8982 120.347 36.2549V36.634H116.14V36.7535C116.144 37.0478 116.194 37.33 116.291 37.6C116.388 37.8666 116.524 38.1021 116.701 38.3064C116.878 38.5107 117.091 38.6751 117.34 38.7998C117.589 38.921 117.866 38.9816 118.171 38.9816C118.517 38.985 118.83 38.921 119.111 38.7894C119.391 38.6578 119.63 38.4674 119.828 38.2181L120.222 38.5141C120.118 38.6595 119.996 38.7946 119.854 38.9192C119.712 39.0404 119.552 39.1443 119.376 39.2308C119.203 39.3174 119.012 39.3849 118.804 39.4334C118.597 39.4819 118.377 39.5061 118.145 39.5061ZM118.025 34.2086C117.773 34.2086 117.541 34.257 117.329 34.354C117.118 34.4475 116.933 34.579 116.774 34.7487C116.614 34.9184 116.483 35.1192 116.379 35.3512C116.275 35.5797 116.204 35.8307 116.166 36.1043H119.724V36.0367C119.717 35.8047 119.674 35.5797 119.594 35.3616C119.518 35.14 119.407 34.9443 119.261 34.7747C119.12 34.605 118.945 34.4682 118.737 34.3644C118.529 34.2605 118.292 34.2086 118.025 34.2086Z" fill="#FCFCFC"/>
<path d="M127.847 39.5061C127.456 39.5061 127.099 39.4334 126.777 39.288C126.455 39.1426 126.178 38.9452 125.946 38.6959C125.717 38.4466 125.539 38.1558 125.411 37.8234C125.286 37.4875 125.222 37.1309 125.219 36.7535V36.5301C125.222 36.1285 125.288 35.7545 125.416 35.4083C125.548 35.0621 125.726 34.7608 125.951 34.5046C126.176 34.2484 126.441 34.0476 126.746 33.9021C127.051 33.7532 127.378 33.6788 127.727 33.6788C128.101 33.6788 128.432 33.7463 128.719 33.8814C129.007 34.0164 129.247 34.2016 129.441 34.4371C129.639 34.6691 129.788 34.9409 129.888 35.2525C129.992 35.5641 130.046 35.8982 130.049 36.2549V36.634H125.842V36.7535C125.846 37.0478 125.896 37.33 125.993 37.6C126.09 37.8666 126.226 38.1021 126.403 38.3064C126.58 38.5107 126.793 38.6751 127.042 38.7998C127.291 38.921 127.568 38.9816 127.873 38.9816C128.219 38.985 128.532 38.921 128.813 38.7894C129.093 38.6578 129.332 38.4674 129.53 38.2181L129.924 38.5141C129.82 38.6595 129.698 38.7946 129.556 38.9192C129.414 39.0404 129.254 39.1443 129.078 39.2308C128.905 39.3174 128.714 39.3849 128.506 39.4334C128.299 39.4819 128.079 39.5061 127.847 39.5061ZM127.727 34.2086C127.475 34.2086 127.243 34.257 127.031 34.354C126.82 34.4475 126.635 34.579 126.476 34.7487C126.316 34.9184 126.185 35.1192 126.081 35.3512C125.977 35.5797 125.906 35.8307 125.868 36.1043H129.426V36.0367C129.419 35.8047 129.376 35.5797 129.296 35.3616C129.22 35.14 129.109 34.9443 128.964 34.7747C128.822 34.605 128.647 34.4682 128.439 34.3644C128.231 34.2605 127.994 34.2086 127.727 34.2086Z" fill="#FCFCFC"/>
<path d="M137.221 32.3441V33.7827H139.304V34.2917H137.221V37.8286C137.225 38.0467 137.258 38.2285 137.32 38.3739C137.386 38.5159 137.472 38.6319 137.58 38.7219C137.691 38.8085 137.819 38.8708 137.964 38.9089C138.113 38.947 138.274 38.966 138.447 38.966C138.62 38.966 138.797 38.9539 138.977 38.9296C139.16 38.9054 139.316 38.8812 139.444 38.8569L139.538 39.3296C139.389 39.3884 139.207 39.4317 138.993 39.4594C138.778 39.4906 138.56 39.5061 138.338 39.5061C138.089 39.5061 137.859 39.475 137.647 39.4127C137.436 39.3538 137.253 39.2586 137.097 39.127C136.941 38.992 136.818 38.8188 136.728 38.6076C136.638 38.393 136.591 38.1315 136.588 37.8234V34.2917H135.025V33.7827H136.588V32.3441H137.221Z" fill="#FCFCFC"/>
<path d="M151.795 35.9952L155.539 37.5533V38.2077L151.089 36.2393V35.7407L155.539 33.7775V34.4267L151.795 35.9952Z" fill="#FCFCFC"/>
<path d="M163.211 38.9816C163.418 38.9816 163.616 38.9521 163.803 38.8933C163.993 38.8309 164.161 38.7426 164.306 38.6284C164.452 38.5141 164.57 38.3774 164.66 38.2181C164.753 38.0553 164.807 37.8718 164.821 37.6676H165.418C165.404 37.9342 165.335 38.18 165.21 38.4051C165.086 38.6301 164.923 38.824 164.722 38.9867C164.521 39.1495 164.291 39.2776 164.031 39.3711C163.772 39.4611 163.498 39.5061 163.211 39.5061C162.799 39.5061 162.44 39.4282 162.136 39.2724C161.831 39.1166 161.576 38.9088 161.372 38.6492C161.171 38.3895 161.019 38.0917 160.915 37.7558C160.815 37.4165 160.764 37.0651 160.764 36.7015V36.4834C160.764 36.1198 160.815 35.7701 160.915 35.4343C161.019 35.0949 161.171 34.7954 161.372 34.5358C161.576 34.2761 161.831 34.0683 162.136 33.9125C162.44 33.7567 162.797 33.6788 163.205 33.6788C163.517 33.6788 163.804 33.729 164.068 33.8294C164.334 33.9264 164.564 34.0649 164.758 34.2449C164.956 34.4215 165.112 34.6327 165.226 34.8785C165.34 35.1209 165.404 35.3875 165.418 35.6784H164.821C164.81 35.4672 164.762 35.2715 164.675 35.0915C164.589 34.9114 164.474 34.7556 164.332 34.6241C164.191 34.4925 164.023 34.3903 163.829 34.3176C163.638 34.2449 163.43 34.2086 163.205 34.2086C162.88 34.2086 162.601 34.2743 162.369 34.4059C162.141 34.5375 161.954 34.7106 161.808 34.9253C161.663 35.14 161.556 35.3841 161.486 35.6576C161.421 35.9277 161.388 36.2029 161.388 36.4834V36.7015C161.388 36.9854 161.421 37.2642 161.486 37.5377C161.556 37.8112 161.663 38.0553 161.808 38.27C161.954 38.4812 162.141 38.6526 162.369 38.7842C162.601 38.9158 162.882 38.9816 163.211 38.9816Z" fill="#FCFCFC"/>
<path d="M170.31 36.5094C170.314 36.1285 170.373 35.7667 170.487 35.4239C170.601 35.0811 170.764 34.7816 170.975 34.5254C171.19 34.2657 171.451 34.0597 171.759 33.9073C172.071 33.755 172.422 33.6788 172.814 33.6788C173.208 33.6788 173.56 33.755 173.868 33.9073C174.18 34.0597 174.443 34.2657 174.657 34.5254C174.872 34.7816 175.037 35.0811 175.151 35.4239C175.265 35.7667 175.324 36.1285 175.327 36.5094V36.6808C175.324 37.0616 175.265 37.4234 175.151 37.7662C175.04 38.109 174.877 38.4102 174.663 38.6699C174.448 38.9262 174.187 39.1304 173.878 39.2828C173.57 39.4317 173.219 39.5061 172.824 39.5061C172.429 39.5061 172.076 39.4317 171.765 39.2828C171.456 39.1304 171.195 38.9262 170.98 38.6699C170.766 38.4102 170.601 38.109 170.487 37.7662C170.373 37.4234 170.314 37.0616 170.31 36.6808V36.5094ZM170.934 36.6808C170.934 36.9785 170.975 37.2659 171.058 37.5429C171.141 37.8199 171.262 38.0657 171.422 38.2804C171.581 38.4916 171.777 38.6613 172.009 38.7894C172.244 38.9175 172.516 38.9816 172.824 38.9816C173.129 38.9816 173.397 38.9175 173.629 38.7894C173.865 38.6613 174.06 38.4916 174.216 38.2804C174.375 38.0657 174.496 37.8199 174.58 37.5429C174.663 37.2659 174.704 36.9785 174.704 36.6808V36.5094C174.704 36.2151 174.663 35.9294 174.58 35.6524C174.496 35.3754 174.375 35.1313 174.216 34.9201C174.057 34.7054 173.859 34.534 173.624 34.4059C173.388 34.2743 173.118 34.2086 172.814 34.2086C172.509 34.2086 172.239 34.2743 172.003 34.4059C171.771 34.534 171.576 34.7054 171.417 34.9201C171.261 35.1313 171.141 35.3754 171.058 35.6524C170.975 35.9294 170.934 36.2151 170.934 36.5094V36.6808Z" fill="#FCFCFC"/>
<path d="M180.147 36.5405C180.147 36.1666 180.194 35.8082 180.287 35.4654C180.381 35.1192 180.519 34.8145 180.703 34.5513C180.89 34.2847 181.122 34.0735 181.399 33.9177C181.679 33.7584 182.008 33.6788 182.386 33.6788C182.742 33.6788 183.061 33.755 183.341 33.9073C183.625 34.0597 183.862 34.2726 184.053 34.5461V31.4247H184.671V39.4022H184.089L184.063 38.6699C183.866 38.94 183.624 39.1477 183.336 39.2932C183.049 39.4351 182.728 39.5061 182.375 39.5061C182.005 39.5061 181.679 39.4265 181.399 39.2672C181.122 39.1045 180.89 38.8915 180.703 38.6284C180.519 38.3618 180.381 38.0571 180.287 37.7143C180.194 37.368 180.147 37.0131 180.147 36.6496V36.5405ZM180.776 36.6496C180.776 36.93 180.805 37.2088 180.864 37.4858C180.926 37.7628 181.025 38.0121 181.16 38.2337C181.295 38.4518 181.472 38.6284 181.69 38.7634C181.908 38.8985 182.174 38.966 182.49 38.966C182.666 38.966 182.832 38.9435 182.988 38.8985C183.147 38.8534 183.293 38.7894 183.424 38.7063C183.559 38.6197 183.679 38.5176 183.783 38.3999C183.89 38.2787 183.98 38.1436 184.053 37.9948V35.2733C183.984 35.1175 183.897 34.9755 183.793 34.8474C183.693 34.7193 183.577 34.6085 183.445 34.515C183.314 34.4215 183.168 34.3488 183.009 34.2968C182.85 34.2449 182.68 34.2189 182.5 34.2189C182.181 34.2189 181.913 34.2882 181.695 34.4267C181.477 34.5617 181.298 34.74 181.16 34.9616C181.025 35.1798 180.926 35.4273 180.864 35.7043C180.805 35.9813 180.776 36.2601 180.776 36.5405V36.6496Z" fill="#FCFCFC"/>
<path d="M192.435 39.5061C192.044 39.5061 191.687 39.4334 191.365 39.288C191.043 39.1426 190.766 38.9452 190.534 38.6959C190.306 38.4466 190.128 38.1558 190 37.8234C189.875 37.4875 189.811 37.1309 189.807 36.7535V36.5301C189.811 36.1285 189.877 35.7545 190.005 35.4083C190.136 35.0621 190.315 34.7608 190.54 34.5046C190.765 34.2484 191.03 34.0476 191.334 33.9021C191.639 33.7532 191.966 33.6788 192.316 33.6788C192.69 33.6788 193.021 33.7463 193.308 33.8814C193.595 34.0164 193.836 34.2016 194.03 34.4371C194.227 34.6691 194.376 34.9409 194.476 35.2525C194.58 35.5641 194.634 35.8982 194.637 36.2549V36.634H190.431V36.7535C190.434 37.0478 190.484 37.33 190.581 37.6C190.678 37.8666 190.815 38.1021 190.992 38.3064C191.168 38.5107 191.381 38.6751 191.63 38.7998C191.88 38.921 192.157 38.9816 192.461 38.9816C192.808 38.985 193.121 38.921 193.401 38.7894C193.682 38.6578 193.921 38.4674 194.118 38.2181L194.513 38.5141C194.409 38.6595 194.286 38.7946 194.144 38.9192C194.002 39.0404 193.843 39.1443 193.666 39.2308C193.493 39.3174 193.303 39.3849 193.095 39.4334C192.887 39.4819 192.667 39.5061 192.435 39.5061ZM192.316 34.2086C192.063 34.2086 191.831 34.257 191.62 34.354C191.409 34.4475 191.224 34.579 191.064 34.7487C190.905 34.9184 190.773 35.1192 190.67 35.3512C190.566 35.5797 190.495 35.8307 190.457 36.1043H194.014V36.0367C194.007 35.8047 193.964 35.5797 193.884 35.3616C193.808 35.14 193.697 34.9443 193.552 34.7747C193.41 34.605 193.235 34.4682 193.027 34.3644C192.82 34.2605 192.583 34.2086 192.316 34.2086Z" fill="#FCFCFC"/>
<path d="M203.503 35.9744L199.686 34.4059V33.7671L204.225 35.7303V36.2289L199.686 38.1973V37.5585L203.503 35.9744Z" fill="#FCFCFC"/>
<path d="M46.9305 4.46181C45.3291 3.11667 43.1192 2.44409 40.3008 2.44409H32.262V3.91735H40.3008C42.6708 3.91735 44.4964 4.46181 45.7775 5.51871C47.0265 6.57561 47.6671 8.0809 47.6671 10.0025C47.6671 11.9562 47.0265 13.4615 45.7775 14.4864C44.4964 15.5433 42.6708 16.0557 40.3008 16.0557H32.262V24.8632H33.8954V17.529H40.3008C43.1192 17.529 45.3291 16.8884 46.9305 15.5433C48.5318 14.1981 49.3325 12.3726 49.3325 10.0025C49.3325 7.66454 48.5318 5.80696 46.9305 4.46181V4.46181Z" fill="#FCFCFC"/>
<path d="M69.3521 12.7569H54.8438V14.1981H69.3521V12.7569ZM69.3521 2.44409H54.8438V3.91735H69.3521V2.44409ZM54.8438 23.3899V24.8632H69.3521V23.3899H54.8438Z" fill="#FCFCFC"/>
<path d="M94.555 2.44409H92.9216V21.9167L77.6766 2.44409H76.2994V24.8632H77.9328V5.3906L93.2098 24.8632H94.555V2.44409Z" fill="#FCFCFC"/>
<path d="M127.616 15.191C126.783 14.2301 125.566 13.6216 123.965 13.3013C125.086 12.949 126.014 12.3085 126.687 11.4117C127.359 10.547 127.712 9.4901 127.712 8.17698C127.712 6.35142 127.007 4.94222 125.662 3.94938C124.317 2.95653 122.427 2.44409 119.993 2.44409H110.641V3.85329H119.929C121.883 3.85329 123.388 4.23762 124.445 5.00628C125.502 5.77493 126.046 6.86386 126.046 8.30509C126.046 9.77834 125.502 10.8993 124.445 11.668C123.388 12.4366 121.883 12.7889 119.929 12.7889H110.641V14.1981H120.634C122.78 14.1981 124.445 14.5824 125.566 15.3191C126.687 16.0877 127.263 17.2407 127.263 18.81C127.263 20.4114 126.687 21.5644 125.566 22.333C124.445 23.1017 122.812 23.454 120.634 23.454H110.641V24.8632H120.634C123.356 24.8632 125.406 24.3508 126.815 23.3259C128.192 22.301 128.897 20.8598 128.897 18.9382C128.897 17.4329 128.448 16.1838 127.616 15.191Z" fill="#FCFCFC"/>
<path d="M142.923 2.44409H141.29L130.977 24.8632H132.739L142.091 4.23762L151.475 24.8632H153.236L142.923 2.44409Z" fill="#FCFCFC"/>
<path d="M163.968 13.8138L173.608 24.8632H175.594L165.057 12.6288L174.921 2.44409H172.935L158.939 16.8564V2.44409H157.306V24.8632H158.939V18.9702L163.968 13.8138Z" fill="#FCFCFC"/>
<path d="M194.334 12.7569H179.825V14.1981H194.334V12.7569ZM194.334 2.44409H179.825V3.91735H194.334V2.44409ZM179.825 23.3899V24.8632H194.334V23.3899H179.825Z" fill="#FCFCFC"/>
<path d="M213.099 17.0165C214.764 16.5361 216.078 15.7034 216.974 14.4864C217.871 13.2693 218.352 11.7961 218.352 10.0025C218.352 7.66454 217.551 5.80696 215.95 4.46181C214.348 3.11667 212.138 2.44409 209.32 2.44409H201.281V3.91735H209.32C211.69 3.91735 213.515 4.46181 214.797 5.51871C216.046 6.57561 216.686 8.0809 216.686 10.0025C216.686 11.9562 216.046 13.4615 214.797 14.5184C213.515 15.5753 211.69 16.0877 209.32 16.0877H201.281V24.8632H202.914V17.529H209.32C209.96 17.529 210.697 17.4969 211.498 17.3688L216.846 24.8632H218.704L213.099 17.0165Z" fill="#FCFCFC"/>
<path d="M230.968 17.1446L240 2.44409H238.302L230.2 15.6393L222.097 2.44409H220.303L229.335 17.1446V24.8632H230.968V17.1446Z" fill="#FCFCFC"/>
<mask id="path-27-inside-1_91_182" fill="white">
<path fill-rule="evenodd" clip-rule="evenodd" d="M19.5033 7.28687C19.2335 7.3447 18.9537 7.37514 18.6667 7.37514C16.4732 7.37514 14.695 5.59698 14.695 3.4035C14.695 2.62507 14.919 1.89894 15.306 1.28603C14.4677 1.112 13.5991 1.02054 12.7092 1.02054C5.69012 1.02054 0 6.71066 0 13.7298C0 20.7489 5.69012 26.439 12.7092 26.439C19.6288 26.439 25.2568 20.9092 25.4151 14.0277C25.1622 14.0925 24.8972 14.1269 24.6242 14.1269C22.8694 14.1269 21.4469 12.7044 21.4469 10.9496C21.4469 10.7792 21.4603 10.6119 21.4861 10.4487C20.3176 10.1197 19.461 9.04604 19.461 7.77231C19.461 7.60671 19.4755 7.4445 19.5033 7.28687Z"/>
</mask>
<path d="M19.5033 7.28687L21.473 7.63373L21.9881 4.70866L19.084 5.33131L19.5033 7.28687ZM15.306 1.28603L16.9971 2.35379L18.5374 -0.0857473L15.7125 -0.672211L15.306 1.28603ZM25.4151 14.0277L27.4145 14.0737L27.4752 11.4353L24.9187 12.0903L25.4151 14.0277ZM21.4861 10.4487L23.4615 10.7615L23.7396 9.00541L22.0282 8.52355L21.4861 10.4487ZM18.6667 9.37514C19.0955 9.37514 19.5159 9.32962 19.9226 9.24242L19.084 5.33131C18.9512 5.35978 18.8119 5.37514 18.6667 5.37514V9.37514ZM12.695 3.4035C12.695 6.70154 15.3686 9.37514 18.6667 9.37514V5.37514C17.5778 5.37514 16.695 4.49241 16.695 3.4035H12.695ZM13.6148 0.218277C13.032 1.14135 12.695 2.23613 12.695 3.4035H16.695C16.695 3.01401 16.8059 2.65653 16.9971 2.35379L13.6148 0.218277ZM12.7092 3.02054C13.4618 3.02054 14.1941 3.09785 14.8994 3.24428L15.7125 -0.672211C14.7413 -0.873845 13.7365 -0.979462 12.7092 -0.979462V3.02054ZM2 13.7298C2 7.81523 6.79469 3.02054 12.7092 3.02054V-0.979462C4.58555 -0.979462 -2 5.60609 -2 13.7298H2ZM12.7092 24.439C6.79469 24.439 2 19.6443 2 13.7298H-2C-2 21.8535 4.58555 28.439 12.7092 28.439V24.439ZM23.4156 13.9817C23.2822 19.7794 18.5396 24.439 12.7092 24.439V28.439C20.718 28.439 27.2313 22.039 27.4145 14.0737L23.4156 13.9817ZM24.6242 16.1269C25.0661 16.1269 25.4978 16.0711 25.9114 15.9651L24.9187 12.0903C24.8267 12.1138 24.7284 12.1269 24.6242 12.1269V16.1269ZM19.4469 10.9496C19.4469 13.809 21.7648 16.1269 24.6242 16.1269V12.1269C23.974 12.1269 23.4469 11.5998 23.4469 10.9496H19.4469ZM19.5108 10.1359C19.4686 10.4021 19.4469 10.674 19.4469 10.9496H23.4469C23.4469 10.8843 23.452 10.8216 23.4615 10.7615L19.5108 10.1359ZM22.0282 8.52355C21.6992 8.43094 21.461 8.12685 21.461 7.77231H17.461C17.461 9.96523 18.936 11.8085 20.9441 12.3739L22.0282 8.52355ZM21.461 7.77231C21.461 7.72351 21.4653 7.67736 21.473 7.63373L17.5336 6.94001C17.4857 7.21165 17.461 7.48992 17.461 7.77231H21.461Z" fill="white" mask="url(#path-27-inside-1_91_182)"/>
<path d="M17.3916 18.6385C17.3916 18.3268 17.2497 17.9112 17.0653 17.6514C16.8383 17.305 16.5687 17.1665 16.1148 17.0972C15.5615 17.0279 15.3912 17.0972 14.8805 17.5648C14.086 18.2748 14.0718 18.8117 14.8096 19.6776C15.4054 20.3876 16.0296 20.7513 16.4694 20.6127C16.8525 20.4915 17.3916 19.3312 17.3916 18.6385Z" fill="white"/>
<path d="M10.7025 18.2106L10.1507 17.9094C9.84575 17.7509 9.35204 17.5923 9.0471 17.5448C8.58243 17.4813 8.45174 17.5289 8.24844 17.8301C7.95802 18.2899 7.95802 18.7655 8.2194 19.4473C8.4953 20.1607 8.91641 20.5254 9.56985 20.6205C10.4411 20.7315 10.7025 20.4302 10.7025 19.2095V18.2106Z" fill="white"/>
<path d="M6.77894 11.3658C6.82262 11.0125 6.76438 10.8224 6.5751 10.6593C6.42949 10.5371 6.06548 10.4012 5.77427 10.3469C5.27921 10.2518 5.20641 10.2926 4.58031 10.9175L4.57844 10.9193C3.92506 11.5696 3.91052 11.584 3.91052 12.5341C3.91052 13.7567 4.21629 14.2186 5.04624 14.2186C5.78883 14.2186 6.69158 13.7024 7.04103 13.1046L7.33224 12.602L7.02647 12.2216C6.80806 11.9499 6.74982 11.7054 6.77894 11.3658Z" fill="white"/>
<path d="M12.2338 10.4052C12.1244 10.0922 11.7963 9.7424 11.5045 9.59512C10.8482 9.24531 9.4443 9.24531 9.17081 9.5767C9.06142 9.72399 8.91556 10.2579 8.84263 10.755C8.75147 11.6571 8.75147 11.6939 9.35314 12.0622C10.9758 13.0748 12.8902 11.9701 12.2338 10.4052Z" fill="white"/>
<path d="M17.2972 11.9626C17.2972 11.5904 15.9879 9.58394 15.6426 9.42213C15.3117 9.27649 14.9663 9.30886 14.6786 9.48685C14.4196 9.66485 14.0743 11.2183 14.2038 11.6228C14.2613 11.7684 14.6642 12.0435 15.1102 12.2539C15.5563 12.448 15.9879 12.6746 16.0598 12.7555C16.4771 13.16 17.2972 12.6422 17.2972 11.9626Z" fill="white"/>
<circle cx="19.3983" cy="1.11485" r="1.11485" fill="white"/>
<circle cx="22.9204" cy="5.57162" r="1.02652" fill="white"/>
<circle cx="24.7496" cy="10.6082" r="0.668908" fill="white"/>
</g>
</svg>
